<svg width="104" height="39" viewBox="0 0 104 39" fill="none" xmlns="http://www.w3.org/2000/svg">
<path d="M17.56 1.24C21.8 7.4 25.92 18.52 26.12 30.52C26.12 31.04 25.84 31.4 25.28 31.4H21.76C21.12 31.4 21.08 31.04 21.08 30.52C21.12 28.28 20.96 25.88 20.64 23.4H8.4L5.4 31.36C5.24 31.76 5 31.88 4.48 31.72L1.32 30.64C0.88 30.48 0.68 30.32 0.88 29.84L12.04 1.36C12.28 0.799998 12.56 0.599998 13.12 0.599998H16.24C16.88 0.599998 17.16 0.68 17.56 1.24ZM19.84 18.92C18.76 14.08 17.08 9.32 15.04 5.68L10.08 18.92H19.84ZM36.0003 30.6C36.0003 31.08 35.6803 31.4 35.2003 31.4H32.0003C31.5203 31.4 31.2003 31.08 31.2003 30.6V10.2C31.2003 9.72 31.5203 9.4 32.0003 9.4H35.2003C35.6803 9.4 36.0003 9.72 36.0003 10.2V30.6ZM30.7603 3.32C30.7603 1.96 31.7203 0.999998 33.0803 0.999998H34.1203C35.4803 0.999998 36.4403 1.96 36.4403 3.32V4.32C36.4403 5.68 35.4803 6.64 34.1203 6.64H33.0803C31.7203 6.64 30.7603 5.68 30.7603 4.32V3.32ZM56.3872 28.04C54.9872 30.12 52.9072 31.8 49.7472 31.8C44.2672 31.8 40.5472 26.84 40.5472 20.4C40.5472 13.96 44.2672 9 49.7472 9C52.9072 9 54.9872 10.68 56.3872 12.76V10.2C56.3872 9.72 56.7072 9.4 57.1872 9.4H60.3872C60.8672 9.4 61.1872 9.72 61.1872 10.2V30.6C61.1872 31.08 60.8672 31.4 60.3872 31.4H57.1872C56.7072 31.4 56.3872 31.08 56.3872 30.6V28.04ZM45.5472 20.4C45.5472 25.04 47.7472 27.8 50.7072 27.8C54.3472 27.8 56.4272 23.88 56.4672 20.4C56.4272 16.92 54.3472 13 50.7072 13C47.7472 13 45.5472 15.76 45.5472 20.4ZM71.7425 30.6C71.7425 31.08 71.4225 31.4 70.9425 31.4H67.7425C67.2625 31.4 66.9425 31.08 66.9425 30.6V10.2C66.9425 9.72 67.2625 9.4 67.7425 9.4H70.9425C71.4225 9.4 71.7425 9.72 71.7425 10.2V14.24C72.9025 10.92 74.7425 9 77.2225 9C78.4625 9 79.5825 9.36 80.7825 10.04C81.1825 10.28 81.2225 10.64 81.0625 11L79.8625 13.64C79.6625 14.04 79.4225 14.24 78.9425 13.92C77.9425 13.28 77.3025 13.12 76.6625 13.12C74.5825 13.12 72.5025 16.24 71.7425 22.64V30.6ZM84.3988 10.2C84.3988 9.72 84.7188 9.4 85.1988 9.4H88.3988C88.8788 9.4 89.1988 9.72 89.1988 10.2V18.56C89.1988 24.84 90.3588 26.08 92.0388 26.08C94.3588 26.08 97.0788 23.28 98.7588 16.56V10.2C98.7588 9.72 99.0788 9.4 99.5588 9.4H102.759C103.239 9.4 103.559 9.72 103.559 10.2V28.52C103.559 35.04 98.7988 38.6 92.1188 38.6C89.1988 38.6 86.9987 37.92 85.6388 37.2C85.3188 37.04 85.1188 36.72 85.2788 36.28L86.3588 33.6C86.4788 33.32 86.7188 33 87.2388 33.24C88.5988 33.92 90.1588 34.48 92.2388 34.48C95.7588 34.48 98.7588 32.6 98.7588 28.56V24.16C96.7588 28.04 93.8388 30.2 90.6788 30.2C87.1988 30.2 84.3988 28.04 84.3988 20.8V10.2Z" fill="#5D7E49"/>
</svg>
